<svg width="250" height="100" viewBox="0 0 250 100" fill="none" xmlns="http://www.w3.org/2000/svg">
<path d="M68.3001 15.64L67.8901 18.41L65.5501 34.08H60.9001L63.2301 18.41H25.5001L16.2801 80.13H54.0701L55.6801 69.36H60.2701L58.6701 80.13L57.8101 85.83C57.4501 88.28 55.3401 90.09 52.8701 90.09H15.8501C12.7901 90.09 10.4501 87.38 10.9001 84.35L11.5301 80.13L12.1701 75.85C12.7101 72.26 13.2401 68.67 13.7801 65.08C14.4901 60.35 15.1901 55.63 15.9001 50.9C16.6201 46.06 17.3501 41.22 18.0701 36.38C18.6601 32.45 19.2401 28.53 19.8301 24.6C20.3501 21.13 20.9401 17.68 21.4301 14.21C21.7701 11.74 23.8901 9.90002 26.3801 9.90002H63.3601C66.4101 9.90002 68.7601 12.61 68.3001 15.64Z" fill="#EE6618"/>
<path d="M50.9001 13.27H40.0201C39.4457 13.27 38.9801 13.7356 38.9801 14.31V14.32C38.9801 14.8944 39.4457 15.36 40.0201 15.36H50.9001C51.4745 15.36 51.9401 14.8944 51.9401 14.32V14.31C51.9401 13.7356 51.4745 13.27 50.9001 13.27Z" fill="white"/>
<path d="M36.78 84.785C36.78 83.1585 35.4615 81.84 33.835 81.84C32.2085 81.84 30.89 83.1585 30.89 84.785C30.89 86.4115 32.2085 87.73 33.835 87.73C35.4615 87.73 36.78 86.4115 36.78 84.785Z" fill="white"/>
<path d="M32.78 51.07C34.25 41.82 40.52 36.9 48.08 36.9C54.85 36.9 59.4 40.87 58.7 47.95H53.57C53.94 43.61 51.42 41.5 47.4 41.5C42.75 41.5 39.16 44.46 38.11 51.07C37.09 57.52 39.75 60.43 44.4 60.43C48.37 60.43 51.55 58.37 52.53 54.19H57.71C56.13 61.17 50.38 65.08 43.61 65.08C36.05 65.08 31.33 60.16 32.77 51.07H32.78Z" fill="#EE6618"/>
<path d="M82.25 52.49H63.22C62.82 57.67 64.99 60.68 69.48 60.68C73.5 60.68 75.91 58.46 76.83 55.34H81.38C79.5 61.9 74.4 65.01 69.12 65.01C60.61 65.01 57.16 58.72 58.38 51.05C59.59 43.44 64.54 36.88 73.05 36.88C81.56 36.88 83.75 43.75 82.68 50.52C82.55 51.37 82.38 52.05 82.26 52.48L82.25 52.49ZM63.84 48.53H77.96C78.4 44.41 76.78 41.29 72.23 41.29C67.68 41.29 64.86 44.09 63.84 48.53Z" fill="#EE6618"/>
<path d="M88.67 28.02H94.01L88.23 64.5H82.89L88.67 28.02Z" fill="#EE6618"/>
<path d="M92.89 51.07C94.36 41.82 100.63 36.9 108.19 36.9C114.96 36.9 119.51 40.87 118.81 47.95H113.68C114.05 43.61 111.53 41.5 107.51 41.5C102.86 41.5 99.27 44.46 98.22 51.07C97.2 57.52 99.86 60.43 104.51 60.43C108.48 60.43 111.66 58.37 112.64 54.19H117.82C116.24 61.17 110.49 65.08 103.72 65.08C96.16 65.08 91.44 60.16 92.88 51.07H92.89Z" fill="#EE6618"/>
<path d="M119.22 55.08L122.02 37.42H127.36L124.72 54.07C124.06 58.25 125.65 60.2 129.04 60.2C133.16 60.2 136.28 57.24 136.93 53.12L139.42 37.42H144.76L140.47 64.49H135.18L135.75 60.9C133.31 63.65 130.29 64.97 126.96 64.97C121.15 64.97 118.28 61.01 119.22 55.08Z" fill="#EE6618"/>
<path d="M145.13 51.07C146.6 41.82 152.87 36.9 160.43 36.9C167.99 36.9 172.76 41.82 171.3 51.07C169.86 60.16 163.53 65.08 155.97 65.08C148.41 65.08 143.69 60.16 145.13 51.07ZM166.12 51.07C167.17 44.46 164.46 41.5 159.76 41.5C155.06 41.5 151.52 44.46 150.47 51.07C149.45 57.52 152.11 60.43 156.76 60.43C161.41 60.43 165.1 57.52 166.12 51.07Z" fill="#EE6618"/>
<path d="M173.15 57.4101L175.68 41.4401H171.71L172.35 37.4201H176.32L177.31 31.1801H182.6L181.61 37.4201H187.9L187.26 41.4401H180.97L178.63 56.1901C178.15 59.2001 178.94 60.2101 181.48 60.2101H184.28L183.6 64.4901H178.79C174.3 64.4901 172.4 62.1101 173.14 57.4101H173.15Z" fill="#EE6618"/>
<path d="M185 57.36C185.59 53.61 188.2 51.17 191.77 49.64C195.45 48.11 199.9 47.68 204.42 47.89L204.74 45.88C205.38 41.86 202.62 40.91 199.5 40.91C196.12 40.91 192.68 41.91 192.07 45.77H187.15C188.15 39.43 194.21 36.89 199.87 36.89C206 36.89 210.59 39.64 209.55 46.19L206.65 64.48H201.79L202.36 60.89C198.92 64.22 195.41 65.07 192.45 65.07C187.37 65.07 184.25 62.11 185 57.35V57.36ZM203.07 56.46L203.87 51.38C200.64 51.06 197.04 51.43 194.42 52.65C192.43 53.55 190.93 54.98 190.62 56.93C190.21 59.52 191.99 60.95 194.86 60.89C197.72 60.89 200.82 59.3 203.07 56.45V56.46Z" fill="#EE6618"/>
<path d="M211.77 62.96C209.75 61.37 208.78 58.84 209.33 55.35H214.19C213.86 57.41 214.27 58.84 215.29 59.74C216.27 60.59 217.89 61.01 220.06 61.01C222.76 60.96 225.23 59.74 225.67 56.99C226.14 54.03 223.17 53.45 219.5 52.55C215.23 51.49 210.71 50.33 211.55 44.99C212.4 39.6 217.01 36.9 222.82 36.9C225.73 36.9 228.01 37.53 229.51 38.7C231.64 40.29 232.51 42.77 232.04 45.78H227.39C227.67 43.98 227.24 42.71 226.25 41.97C225.35 41.28 223.99 40.91 222.23 40.97C219.22 40.97 216.89 42.29 216.54 44.51C216.15 46.99 219.33 47.58 223.25 48.58C227.62 49.69 231.74 51.07 230.88 56.46C229.99 62.06 225.28 65.08 220.05 65.08C216.51 65.08 213.75 64.5 211.77 62.96Z" fill="#EE6618"/>
<path d="M233.99 38.75C233.99 36.7 235.6 35.05 237.61 35.05C239.62 35.05 241.24 36.7 241.24 38.75C241.24 40.8 239.61 42.4501 237.61 42.4501C235.61 42.4501 233.99 40.8 233.99 38.75ZM240.62 38.75C240.62 37.1 239.25 35.69 237.61 35.69C235.97 35.69 234.61 37.09 234.61 38.75C234.61 40.41 235.97 41.7901 237.61 41.7901C239.25 41.7901 240.62 40.4 240.62 38.75ZM236.38 36.8801H237.85C238.71 36.8801 239.17 37.3001 239.17 38.0201C239.17 38.62 238.85 38.95 238.43 39.09L239.41 40.67H238.51L237.68 39.18H237.16V40.67H236.37V36.8801H236.38ZM237.85 38.5C238.23 38.5 238.44 38.35 238.44 38.01C238.44 37.67 238.23 37.5201 237.85 37.5201H237.11V38.5H237.85Z" fill="#EE6618"/>
<path d="M99.65 79.51C99.21 80.95 98.17 83.08 95.33 83.08C92.49 83.08 91.19 81.23 92.41 76.24C93.29 72.56 94.92 70.02 97.84 70.02C100.76 70.02 101.1 72.3 100.97 73.51H99.3C99.32 72.78 99.4 71.31 97.67 71.31C95.94 71.31 94.81 73.27 94.1 76.31C93.2 80.29 93.85 81.78 95.48 81.78C97.11 81.78 97.76 80.17 97.97 79.5H99.66L99.65 79.51Z" fill="#EE6618"/>
<path d="M107.73 74.88C105.91 74.86 104.83 75.91 104.39 77.76L103.16 82.9H101.51L103.01 76.61C103.36 75.08 103.59 74.11 103.74 73.4H105.31C105.27 73.74 105.18 74.17 104.98 75.04C105.73 73.83 106.84 73.27 108.15 73.25L107.73 74.89V74.88Z" fill="#EE6618"/>
<path d="M110.59 78.39C110.44 78.99 110.38 79.55 110.38 80C110.38 81.12 110.78 81.79 111.8 81.79C112.97 81.79 113.45 81 113.72 80.45H115.33C114.98 81.48 113.93 83.06 111.63 83.06C108.5 83.06 108.5 80.24 109.02 77.98C109.69 75.2 111.13 73.24 113.53 73.24C116.25 73.24 116.77 75.31 116.1 77.7L115.91 78.39H110.58H110.59ZM114.56 77.25C114.66 76.84 114.77 76.37 114.77 76C114.77 75.14 114.46 74.47 113.35 74.47C112.08 74.47 111.28 75.76 110.86 77.25H114.56ZM117.76 69.41L114.46 72.01H112.89L115.65 69.41H117.76Z" fill="#EE6618"/>
<path d="M127.76 69.5901L125.17 80.4001C124.94 81.3701 124.73 82.2901 124.63 82.8801H123C123.04 82.6601 123.1 82.2501 123.21 81.7401C122.65 82.5101 121.94 83.0501 120.64 83.0501C118.49 83.0501 117.8 81.0701 118.59 77.8801C119.26 75.1301 120.74 73.2301 122.87 73.2301C124.19 73.2301 124.77 73.8501 124.96 74.3501L126.11 69.5901H127.76ZM120.22 78.0501C119.7 80.2901 119.89 81.8001 121.37 81.8001C122.85 81.8001 123.61 80.2701 124.19 77.8401C124.71 75.5801 124.48 74.5001 123 74.5001C121.73 74.5001 120.76 75.8301 120.22 78.0501Z" fill="#EE6618"/>
<path d="M130.18 73.3801H131.85L129.57 82.8901H127.92L130.18 73.3801ZM131.1 69.5901H132.75L132.27 71.6101H130.62L131.1 69.5901Z" fill="#EE6618"/>
<path d="M134.09 73.38H135.57L136.2 70.88H137.83L137.22 73.38H138.95L138.66 74.61H136.93L135.49 80.64C135.32 81.31 135.32 81.82 136.2 81.82C136.55 81.82 136.87 81.78 137.08 81.74L136.83 82.86C136.45 82.97 135.91 83.01 135.49 83.01C134.07 83.01 133.38 82.45 133.76 80.88L135.29 74.6H133.81L134.1 73.37L134.09 73.38Z" fill="#EE6618"/>
<path d="M147.06 78.28C146.5 80.76 145.24 83.06 142.53 83.06C139.82 83.06 139.1 80.93 139.82 77.92C140.57 74.8 142.26 73.23 144.29 73.23C147.19 73.23 147.65 75.56 147.07 78.27L147.06 78.28ZM141.46 78.07C140.92 80.42 141.21 81.79 142.67 81.79C144.13 81.79 144.88 80.26 145.39 78.2C145.83 76.37 145.89 74.5 144.16 74.5C142.97 74.5 141.97 75.96 141.46 78.07Z" fill="#EE6618"/>
<path d="M155.83 73.3801H157.5L155.22 82.8901H153.57L155.83 73.3801ZM156.75 69.5901H158.4L157.92 71.6101H156.27L156.75 69.5901Z" fill="#EE6618"/>
<path d="M160.15 76.33C160.61 74.37 160.76 73.7 160.82 73.38H162.43C162.41 73.64 162.3 74.17 162.2 74.58C162.72 73.83 163.52 73.24 164.83 73.24C166.35 73.24 167.42 74.14 166.9 76.34L165.33 82.9H163.68L165.21 76.49C165.48 75.29 165.23 74.53 164.08 74.53C162.85 74.53 162.05 75.33 161.62 77.2L160.26 82.9H158.59L160.16 76.34L160.15 76.33Z" fill="#EE6618"/>
<path d="M170.24 76.24C170.64 74.52 170.78 73.85 170.89 73.38H172.48C172.46 73.51 172.36 74.22 172.27 74.52C172.88 73.74 173.65 73.23 174.76 73.23C175.87 73.23 176.51 73.72 176.62 74.59C177.18 73.84 178.02 73.23 179.36 73.23C180.7 73.23 181.8 73.87 181.26 76.09L179.65 82.89H178.02L179.61 76.22C179.82 75.29 179.73 74.52 178.65 74.52C177.42 74.52 176.73 75.57 176.44 76.82L175 82.89H173.35L174.94 76.26C175.19 75.14 174.98 74.52 174.02 74.52C172.87 74.52 172.1 75.47 171.74 76.89L170.32 82.89H168.67L170.26 76.24H170.24Z" fill="#EE6618"/>
<path d="M185.32 78.39C185.17 78.99 185.11 79.55 185.11 80C185.11 81.12 185.51 81.79 186.53 81.79C187.7 81.79 188.18 81 188.45 80.45H190.06C189.7 81.48 188.66 83.06 186.36 83.06C183.23 83.06 183.23 80.24 183.75 77.98C184.42 75.2 185.86 73.24 188.26 73.24C190.98 73.24 191.5 75.31 190.83 77.7L190.64 78.39H185.31H185.32ZM189.29 77.25C189.39 76.84 189.5 76.37 189.5 76C189.5 75.14 189.19 74.47 188.08 74.47C186.81 74.47 186.01 75.76 185.59 77.25H189.29Z" fill="#EE6618"/>
<path d="M202.49 69.5901L199.9 80.4001C199.67 81.3701 199.46 82.2901 199.36 82.8801H197.73C197.77 82.6601 197.83 82.2501 197.94 81.7401C197.38 82.5101 196.67 83.0501 195.37 83.0501C193.22 83.0501 192.53 81.0701 193.32 77.8801C193.99 75.1301 195.47 73.2301 197.6 73.2301C198.92 73.2301 199.5 73.8501 199.69 74.3501L200.84 69.5901H202.49ZM194.95 78.0501C194.43 80.2901 194.62 81.8001 196.1 81.8001C197.58 81.8001 198.34 80.2701 198.92 77.8401C199.44 75.5801 199.21 74.5001 197.73 74.5001C196.46 74.5001 195.5 75.8301 194.95 78.0501Z" fill="#EE6618"/>
<path d="M204.91 73.3801H206.58L204.3 82.8901H202.65L204.91 73.3801ZM205.83 69.5901H207.48L207 71.6101H205.35L205.83 69.5901Z" fill="#EE6618"/>
<path d="M214.39 80.69C214.24 81.34 213.99 82.39 213.91 82.89H212.3C212.34 82.65 212.4 82.2 212.51 81.86C211.97 82.66 211.17 83.06 210 83.06C207.95 83.06 207.43 81.49 207.79 80C208.21 78.23 209.63 77.61 211.42 77.33C212.13 77.22 212.86 77.16 213.63 77.11L213.84 76.18C214.07 75.28 213.96 74.41 212.52 74.41C211.52 74.41 211.06 74.95 210.79 75.9H209.2C209.58 74.39 210.49 73.25 212.71 73.25C214.78 73.25 215.93 74.2 215.45 76.28L214.38 80.71L214.39 80.69ZM213.37 78.24C212.79 78.3 212.2 78.33 211.68 78.43C210.57 78.62 209.7 79.03 209.44 80.07C209.23 80.91 209.46 81.81 210.63 81.81C211.99 81.81 212.76 80.86 213.2 78.97L213.37 78.24Z" fill="#EE6618"/>
<path d="M218.13 73.38H219.61L220.24 70.88H221.87L221.26 73.38H222.99L222.7 74.61H220.97L219.53 80.64C219.36 81.31 219.36 81.82 220.24 81.82C220.59 81.82 220.91 81.78 221.12 81.74L220.87 82.86C220.49 82.97 219.95 83.01 219.53 83.01C218.11 83.01 217.42 82.45 217.8 80.88L219.33 74.6H217.85L218.14 73.37L218.13 73.38Z" fill="#EE6618"/>
<path d="M231.1 78.28C230.54 80.76 229.28 83.06 226.57 83.06C223.86 83.06 223.14 80.93 223.86 77.92C224.61 74.8 226.3 73.23 228.33 73.23C231.23 73.23 231.69 75.56 231.11 78.27L231.1 78.28ZM225.5 78.07C224.96 80.42 225.25 81.79 226.71 81.79C228.17 81.79 228.92 80.26 229.43 78.2C229.87 76.37 229.93 74.5 228.2 74.5C227.01 74.5 226.01 75.96 225.5 78.07Z" fill="#EE6618"/>
</svg>

