<svg width="121" height="121" viewBox="0 0 121 121" fill="none" xmlns="http://www.w3.org/2000/svg">
<path d="M27.266 30.686L30.6858 27.2662L25.3383 21.9187L21.9185 25.3385L27.266 30.686ZM66.3756 27.2662L93.7342 54.6246L99.0814 49.277L71.7233 21.9187L66.3756 27.2662ZM93.7342 90.3146L90.3144 93.7343L95.6616 99.0815L99.0814 95.6618L93.7342 90.3146ZM54.6245 93.7343L27.266 66.3757L21.9185 71.7234L49.2768 99.0815L54.6245 93.7343ZM90.3144 93.7343C85.4023 98.6459 81.9815 102.055 79.0614 104.284C76.2285 106.445 74.3152 107.136 72.4694 107.136V114.698C76.6333 114.698 80.1428 112.971 83.6488 110.296C87.0671 107.688 90.9008 103.842 95.6616 99.0815L90.3144 93.7343ZM49.2768 99.0815C54.0376 103.842 57.8713 107.688 61.29 110.296C64.7955 112.971 68.305 114.698 72.4694 114.698V107.136C70.6237 107.136 68.7104 106.445 65.8769 104.284C62.9568 102.055 59.536 98.6459 54.6245 93.7343L49.2768 99.0815ZM93.7342 54.6246C98.6458 59.5362 102.055 62.957 104.283 65.8771C106.445 68.7105 107.135 70.6238 107.135 72.4696H114.698C114.698 68.3052 112.971 64.7957 110.296 61.2902C107.687 57.8714 103.842 54.0378 99.0814 49.277L93.7342 54.6246ZM99.0814 95.6618C103.842 90.9009 107.687 87.0672 110.296 83.649C112.971 80.143 114.698 76.6335 114.698 72.4696H107.135C107.135 74.3153 106.445 76.2287 104.283 79.0616C102.055 81.9817 98.6458 85.4025 93.7342 90.3146L99.0814 95.6618ZM30.6858 27.2662C35.5977 22.3543 39.0183 18.945 41.9386 16.7169C44.7716 14.5554 46.685 13.8647 48.5307 13.8647V6.30225C44.3667 6.30225 40.8571 8.02977 37.3514 10.7045C33.9328 13.3127 30.099 17.158 25.3383 21.9187L30.6858 27.2662ZM71.7233 21.9187C66.9624 17.158 63.1287 13.3127 59.71 10.7045C56.2045 8.02977 52.695 6.30225 48.5307 6.30225V13.8647C50.3765 13.8647 52.2897 14.5554 55.1231 16.7169C58.0432 18.945 61.464 22.3543 66.3756 27.2662L71.7233 21.9187ZM21.9185 25.3385C17.1578 30.0992 13.3126 33.933 10.7044 37.3515C8.02962 40.8572 6.30209 44.3668 6.30209 48.5309H13.8646C13.8646 46.6852 14.5552 44.7718 16.7168 41.9388C18.9448 39.0185 22.3541 35.5979 27.266 30.686L21.9185 25.3385ZM27.266 66.3757C22.3541 61.4641 18.9448 58.0434 16.7168 55.1232C14.5552 52.2898 13.8646 50.3766 13.8646 48.5309H6.30209C6.30209 52.6952 8.02962 56.2047 10.7044 59.7101C13.3126 63.1289 17.1578 66.9626 21.9185 71.7234L27.266 66.3757Z" fill="#EE6618"/>
<path opacity="0.5" d="M47.785 30.6889C49.2616 29.2122 49.2616 26.818 47.785 25.3414C46.3083 23.8647 43.9141 23.8647 42.4375 25.3414L47.785 30.6889ZM25.3385 42.4403C23.8619 43.917 23.8619 46.3111 25.3385 47.7878C26.8152 49.2645 29.2094 49.2645 30.686 47.7878L25.3385 42.4403ZM42.4375 25.3414L25.3385 42.4403L30.686 47.7878L47.785 30.6889L42.4375 25.3414ZM81.7652 76.8571C83.1214 78.2133 83.1214 80.4125 81.7652 81.7687L87.1129 87.1164C91.4226 82.8067 91.4226 75.8195 87.1129 71.5094L81.7652 76.8571ZM81.7652 81.7687C80.409 83.1254 78.2099 83.1254 76.8537 81.7687L71.506 87.1164C75.8156 91.426 82.8033 91.426 87.1129 87.1164L81.7652 81.7687ZM76.8537 81.7687C75.4969 80.4125 75.4969 78.2133 76.8537 76.8571L71.506 71.5094C67.1963 75.8195 67.1963 82.8067 71.506 87.1164L76.8537 81.7687ZM76.8537 76.8571C78.2099 75.5009 80.409 75.5009 81.7652 76.8571L87.1129 71.5094C82.8033 67.1998 75.8156 67.1998 71.506 71.5094L76.8537 76.8571Z" fill="#EE6618"/>
<path opacity="0.5" d="M103.354 35.2211L110.917 40.3335C110.917 25.1345 100.015 12.5174 85.7083 10.0835" stroke="#EE6618" stroke-width="5" stroke-linecap="round" stroke-linejoin="round"/>
<path d="M17.6458 85.7792L10.0833 80.667C10.0833 95.8661 20.9849 108.483 35.2917 110.917" stroke="#EE6618" stroke-width="5" stroke-linecap="round" stroke-linejoin="round"/>
</svg>
